<?xml version="1.0" encoding="utf-8"?>
<!-- Generator: Adobe Illustrator 16.0.0, SVG Export Plug-In . SVG Version: 6.00 Build 0)  -->
<!DOCTYPE svg PUBLIC "-//W3C//DTD SVG 1.1//EN" "http://www.w3.org/Graphics/SVG/1.1/DTD/svg11.dtd">
<svg version="1.1" id="Layer_1" xmlns="http://www.w3.org/2000/svg" xmlns:xlink="http://www.w3.org/1999/xlink" x="0px" y="0px"
	 width="150px" height="150px" viewBox="0 0 150 150" enable-background="new 0 0 150 150" xml:space="preserve">
<g>
	<path fill="#FFFFFF" d="M16.412,33.573c-7.895,11.876-12.5,26.12-12.5,41.421c0,16.406,5.285,31.62,14.276,43.969l-0.007,0.019
		c5.316,7.319,11.922,13.644,19.483,18.637l0.007-0.002c1.446,0.957,2.928,1.866,4.441,2.724c0.128,0.072,0.258,0.145,0.387,0.217
		c0.289,0.161,0.578,0.322,0.869,0.48c0.438,0.236,0.878,0.47,1.322,0.697c0.105,0.056,0.213,0.107,0.318,0.162
		c0.436,0.222,0.872,0.439,1.312,0.652c0.056,0.027,0.112,0.055,0.169,0.082C56.307,147.354,67.304,150,78.907,150
		c16.405,0,31.62-5.285,43.968-14.276l0.014,0.005c7.32-5.318,13.645-11.926,18.64-19.488c0.608-0.92,1.196-1.855,1.765-2.803
		c0.163-0.271,0.323-0.541,0.482-0.814c0.26-0.402,0.498-0.82,0.713-1.252c0.869-1.749,1.361-3.72,1.361-5.806
		c0-7.216-5.851-13.065-13.066-13.065c-4.529,0-8.519,2.305-10.862,5.805c-0.345,0.516-0.655,1.057-0.926,1.62
		c-8.532,14.359-24.196,24.004-42.071,24.004c-9.946,0-19.182-2.963-26.914-8.085l-18.802,6.006l6.094-18.173
		c-5.864-8.056-9.313-17.979-9.313-28.68c0-26.979,21.935-48.926,48.91-48.926v0.003h0.024c17.945,0,33.662,9.718,42.172,24.168
		c0.281,0.602,0.605,1.179,0.971,1.727c2.352,3.52,6.359,5.84,10.911,5.84c7.241,0,13.11-5.869,13.11-13.11
		c0-1.706-0.329-3.334-0.922-4.829c-0.44-1.109-1.026-2.146-1.736-3.082c-2.987-5.027-6.544-9.677-10.582-13.858
		C119.197,8.801,100.063,0,78.907,0C52.85,0,29.859,13.354,16.412,33.573"/>
	<path fill="#FFFFFF" d="M88.548,54.708l-9.467,11.373l-9.466-11.373c-1.545-1.862-3.634-2.793-6.269-2.793
		c-3.725,0-6.743,3.019-6.743,6.744v33.313c0,3.952,2.248,5.927,6.743,5.927c4.497,0,6.744-1.975,6.744-5.927V73.17l8.987,10.553
		v0.006l0.003-0.002l0.002,0.002v-0.006l8.989-10.553v18.802c0,3.952,2.247,5.927,6.744,5.927c4.496,0,6.743-1.975,6.743-5.927
		V58.659c0-3.725-3.02-6.744-6.743-6.744C92.182,51.915,90.092,52.846,88.548,54.708"/>
</g>
</svg>
