<?xml version="1.0" encoding="utf-8"?>
<!-- Generator: Adobe Illustrator 16.0.0, SVG Export Plug-In . SVG Version: 6.00 Build 0)  -->
<!DOCTYPE svg PUBLIC "-//W3C//DTD SVG 1.1//EN" "http://www.w3.org/Graphics/SVG/1.1/DTD/svg11.dtd">
<svg version="1.1" id="Layer_1" xmlns="http://www.w3.org/2000/svg" xmlns:xlink="http://www.w3.org/1999/xlink" x="0px" y="0px"
	 width="150px" height="150px" viewBox="0 0 150 150" enable-background="new 0 0 150 150" xml:space="preserve">
<g>
	<linearGradient id="SVGID_1_" gradientUnits="userSpaceOnUse" x1="41.4585" y1="10.0342" x2="116.4468" y2="139.9177">
		<stop  offset="0" style="stop-color:#44B0E4"/>
		<stop  offset="0.1213" style="stop-color:#44B0E4"/>
		<stop  offset="0.9557" style="stop-color:#1D90C3"/>
		<stop  offset="1" style="stop-color:#1D90C3"/>
	</linearGradient>
	<path fill="url(#SVGID_1_)" d="M16.412,33.573c-7.895,11.876-12.5,26.12-12.5,41.421c0,16.406,5.285,31.62,14.276,43.968
		l-0.007,0.02c5.316,7.319,11.922,13.643,19.483,18.636l0.007-0.001c1.446,0.957,2.928,1.866,4.441,2.724
		c0.127,0.072,0.258,0.145,0.387,0.216c0.288,0.162,0.578,0.323,0.869,0.481c0.438,0.236,0.878,0.469,1.322,0.697
		c0.105,0.055,0.213,0.107,0.318,0.162c0.436,0.221,0.873,0.439,1.312,0.652c0.056,0.027,0.112,0.055,0.169,0.082
		C56.307,147.353,67.305,150,78.906,150c16.406,0,31.621-5.285,43.969-14.276l0.014,0.005c7.32-5.318,13.645-11.926,18.639-19.488
		c0.609-0.92,1.197-1.855,1.766-2.803c0.162-0.271,0.322-0.541,0.482-0.814c0.26-0.403,0.498-0.82,0.713-1.252
		c0.869-1.749,1.359-3.721,1.359-5.807c0-7.215-5.85-13.064-13.064-13.064c-4.529,0-8.52,2.305-10.863,5.804
		c-0.344,0.517-0.654,1.058-0.926,1.621c-8.531,14.358-24.195,24.004-42.07,24.004c-9.946,0-19.182-2.963-26.913-8.085
		l-18.803,6.006l6.094-18.174c-5.864-8.055-9.313-17.979-9.313-28.679c0-26.979,21.935-48.926,48.909-48.926v0.003h0.025
		c17.945,0,33.662,9.718,42.172,24.167c0.281,0.602,0.605,1.179,0.971,1.727c2.352,3.52,6.359,5.841,10.91,5.841
		c7.242,0,13.111-5.87,13.111-13.111c0-1.706-0.33-3.334-0.922-4.829c-0.441-1.11-1.027-2.146-1.736-3.083
		c-2.988-5.027-6.545-9.676-10.582-13.858C119.197,8.801,100.063,0,78.906,0C52.85,0,29.859,13.354,16.412,33.573"/>
	<linearGradient id="SVGID_2_" gradientUnits="userSpaceOnUse" x1="64.5225" y1="50.1919" x2="93.4219" y2="100.2471">
		<stop  offset="0" style="stop-color:#44B0E4"/>
		<stop  offset="0.1213" style="stop-color:#44B0E4"/>
		<stop  offset="0.9557" style="stop-color:#1D90C3"/>
		<stop  offset="1" style="stop-color:#1D90C3"/>
	</linearGradient>
	<path fill="url(#SVGID_2_)" d="M88.547,54.708L79.08,66.081l-9.465-11.374c-1.545-1.862-3.633-2.793-6.269-2.793
		c-3.725,0-6.744,3.019-6.744,6.745v33.312c0,3.952,2.249,5.928,6.744,5.928c4.497,0,6.744-1.976,6.744-5.928V73.17l8.987,10.553
		v0.006l0.002-0.002l0.002,0.002v-0.006l8.99-10.553v18.801c0,3.952,2.246,5.928,6.742,5.928c4.498,0,6.744-1.976,6.744-5.928
		V58.659c0-3.726-3.02-6.745-6.744-6.745C92.182,51.915,90.092,52.846,88.547,54.708"/>
</g>
</svg>
