<?xml version="1.0" encoding="utf-8"?>
<!-- Generator: Adobe Illustrator 16.0.0, SVG Export Plug-In . SVG Version: 6.00 Build 0)  -->
<!DOCTYPE svg PUBLIC "-//W3C//DTD SVG 1.1//EN" "http://www.w3.org/Graphics/SVG/1.1/DTD/svg11.dtd">
<svg version="1.1" id="Layer_1" xmlns="http://www.w3.org/2000/svg" xmlns:xlink="http://www.w3.org/1999/xlink" x="0px" y="0px"
	 width="402.687px" height="280.038px" viewBox="0 0 402.687 280.038" enable-background="new 0 0 402.687 280.038"
	 xml:space="preserve">
<g>
	<g>
		<path fill="#2196F3" d="M243.376,198.537l-1.478-67.944v-5.908l-30.174,73.852h-20.679l-29.963-73.852v5.064l-1.688,68.788H124.79
			l5.064-128.714h38.402l29.963,70.054c0.423,1.127,1.056,2.954,1.899,5.486c0.139,0.564,0.35,1.266,0.633,2.11
			c0.28,0.844,0.491,1.549,0.634,2.11c0.138-0.561,0.349-1.266,0.633-2.11c0.28-0.844,0.491-1.546,0.633-2.11
			c0.844-2.532,1.477-4.358,1.899-5.486l29.963-70.054h38.403l5.063,128.714H243.376z"/>
	</g>
	<g>
		<g>
			<path fill="#2196F3" d="M35.508,265.552l4.151,8.038c-5.418,4.299-11.807,6.448-19.167,6.448c-5.948,0-10.776-1.855-14.486-5.564
				C2.001,270.47,0,265.022,0,258.133c0-7.243,1.943-12.837,5.83-16.783c3.591-3.709,8.537-5.564,14.839-5.564
				c6.3,0,12.13,1.561,17.489,4.681l-3.887,8.921c-3.71-1.59-7.597-2.385-11.659-2.385c-5.83,0-8.745,3.709-8.745,11.129
				c0,7.125,2.885,10.688,8.656,10.688C27.058,268.82,31.386,267.731,35.508,265.552z"/>
			<path fill="#2196F3" d="M80.731,241.615c3.887,3.887,5.829,9.393,5.829,16.518c0,7.008-1.942,12.396-5.829,16.164
				c-3.946,3.829-9.422,5.741-16.43,5.741c-6.948,0-12.396-1.913-16.34-5.741c-3.887-3.768-5.83-9.156-5.83-16.164
				c0-7.125,1.943-12.631,5.83-16.518c3.886-3.886,9.332-5.83,16.34-5.83C71.368,235.786,76.845,237.729,80.731,241.615z
				 M72.693,258.133c0-7.42-2.798-11.129-8.392-11.129c-5.535,0-8.303,3.709-8.303,11.129c0,7.125,2.768,10.688,8.303,10.688
				C69.896,268.82,72.693,265.258,72.693,258.133z"/>
			<path fill="#2196F3" d="M106.699,236.581v5.653c3.944-4.297,8.184-6.448,12.719-6.448c6.359,0.06,10.423,2.473,12.189,7.243
				c4.593-4.77,9.304-7.154,14.133-7.154c8.773,0,13.161,5.418,13.161,16.252v27.117h-14.133v-23.142
				c0-4.77-1.502-7.154-4.505-7.154c-2.355,0-4.8,1.443-7.331,4.328v25.969H118.8v-23.142c0-4.77-1.59-7.154-4.77-7.154
				c-2.415,0-4.858,1.532-7.331,4.593v25.704H92.566v-42.663H106.699z"/>
			<path fill="#2196F3" d="M180.984,236.581v5.653c3.944-4.297,8.184-6.448,12.719-6.448c6.359,0.06,10.423,2.473,12.189,7.243
				c4.593-4.77,9.304-7.154,14.133-7.154c8.773,0,13.161,5.418,13.161,16.252v27.117h-14.133v-23.142
				c0-4.77-1.502-7.154-4.505-7.154c-2.355,0-4.8,1.443-7.331,4.328v25.969h-14.133v-23.142c0-4.77-1.59-7.154-4.77-7.154
				c-2.415,0-4.858,1.532-7.331,4.593v25.704h-14.133v-42.663H180.984z"/>
			<path fill="#2196F3" d="M276.201,265.199l3.975,7.95c-6.125,4.593-12.69,6.89-19.697,6.89c-6.654,0-11.866-1.825-15.634-5.477
				c-3.945-3.768-5.918-9.215-5.918-16.34c0-7.301,1.943-12.896,5.83-16.783c3.768-3.768,9.038-5.653,15.811-5.653
				c6.123,0,10.922,1.738,14.397,5.211c3.533,3.475,5.357,8.568,5.477,15.281c0,2.12-0.119,4.034-0.354,5.741h-27.559
				c1.001,4.712,3.856,7.066,8.567,7.066C266.278,269.085,271.313,267.791,276.201,265.199z M252.441,253.628h15.898
				c-0.354-5.357-2.945-8.038-7.772-8.038C255.915,245.59,253.206,248.271,252.441,253.628z"/>
			<path fill="#2196F3" d="M300.668,236.581v7.861c3.003-5.771,6.801-8.656,11.394-8.656c1.943,0,3.71,0.088,5.3,0.265
				l-0.972,14.221c-1.885-0.117-3.563-0.177-5.034-0.177c-5.595,0-9.157,2.621-10.688,7.861v21.287h-14.133v-42.663H300.668z"/>
			<path fill="#2196F3" d="M354.548,265.552l4.151,8.038c-5.418,4.299-11.807,6.448-19.167,6.448
				c-5.948,0-10.776-1.855-14.486-5.564c-4.005-4.004-6.006-9.451-6.006-16.341c0-7.243,1.943-12.837,5.83-16.783
				c3.591-3.709,8.537-5.564,14.839-5.564c6.3,0,12.13,1.561,17.489,4.681l-3.887,8.921c-3.71-1.59-7.597-2.385-11.659-2.385
				c-5.83,0-8.745,3.709-8.745,11.129c0,7.125,2.885,10.688,8.656,10.688C346.098,268.82,350.426,267.731,354.548,265.552z"/>
			<path fill="#2196F3" d="M398.446,265.199l3.975,7.95c-6.125,4.593-12.69,6.89-19.697,6.89c-6.654,0-11.866-1.825-15.634-5.477
				c-3.945-3.768-5.918-9.215-5.918-16.34c0-7.301,1.943-12.896,5.83-16.783c3.768-3.768,9.038-5.653,15.811-5.653
				c6.123,0,10.922,1.738,14.397,5.211c3.533,3.475,5.357,8.568,5.477,15.281c0,2.12-0.119,4.034-0.354,5.741h-27.559
				c1.001,4.712,3.856,7.066,8.567,7.066C388.523,269.085,393.558,267.791,398.446,265.199z M374.687,253.628h15.898
				c-0.354-5.357-2.945-8.038-7.772-8.038C378.16,245.59,375.451,248.271,374.687,253.628z"/>
		</g>
	</g>
	<g>
		<circle fill="#2196F3" cx="115.497" cy="42.009" r="20.239"/>
		<path fill="#2196F3" d="M100.087,66.002c-3.551-2.285-6.568-5.338-8.8-8.925c-15.506,21.948-24.618,48.73-24.618,77.643
			c0,28.555,8.887,55.026,24.04,76.815h15.395c-16.983-21.024-27.165-47.75-27.165-76.815
			C78.938,109.271,86.743,85.61,100.087,66.002z"/>
		<path fill="#2196F3" d="M201.391,0c-25.23,0-48.841,6.943-69.026,19.011c3.39,2.495,6.213,5.717,8.229,9.443
			c17.926-10.295,38.685-16.188,60.798-16.188c67.522,0,122.448,54.933,122.448,122.454c0,29.065-10.183,55.792-27.162,76.815
			h15.394c15.15-21.79,24.037-48.261,24.037-76.815C336.107,60.318,275.797,0,201.391,0z"/>
	</g>
</g>
</svg>
