<?xml version="1.0" encoding="iso-8859-1"?>
<!-- Generator: Adobe Illustrator 19.0.0, SVG Export Plug-In . SVG Version: 6.00 Build 0)  -->
<svg version="1.1" id="Capa_1" xmlns="http://www.w3.org/2000/svg" xmlns:xlink="http://www.w3.org/1999/xlink" x="0px" y="0px"
	 viewBox="0 0 512 512" style="enable-background:new 0 0 512 512;" xml:space="preserve">
<g>
	<g>
		<g>
			<path d="M486.4,0H25.6C11.468,0.015,0.015,11.468,0,25.6v460.8c0.015,14.132,11.468,25.585,25.6,25.6h460.8
				c14.132-0.015,25.585-11.468,25.6-25.6V25.6C511.985,11.468,500.532,0.015,486.4,0z M494.933,486.4
				c-0.003,4.712-3.822,8.53-8.533,8.533H25.6c-4.711-0.003-8.53-3.822-8.533-8.533V85.333h477.867V486.4z M494.933,68.267H17.067
				V25.6c0.003-4.711,3.822-8.53,8.533-8.533h460.8c4.712,0.003,8.53,3.822,8.533,8.533V68.267z"/>
			<path d="M68.267,34.133H51.2c-4.713,0-8.533,3.82-8.533,8.533S46.487,51.2,51.2,51.2h17.067c4.713,0,8.533-3.82,8.533-8.533
				S72.979,34.133,68.267,34.133z"/>
			<path d="M460.8,34.133h-17.067c-4.713,0-8.533,3.82-8.533,8.533s3.82,8.533,8.533,8.533H460.8c4.713,0,8.533-3.82,8.533-8.533
				S465.513,34.133,460.8,34.133z"/>
			<path d="M375.467,34.133H136.533c-4.713,0-8.533,3.82-8.533,8.533s3.82,8.533,8.533,8.533h238.933
				c4.713,0,8.533-3.82,8.533-8.533S380.18,34.133,375.467,34.133z"/>
			<path d="M51.2,204.8h170.667c9.421-0.012,17.054-7.646,17.067-17.067v-25.6c-0.012-9.421-7.646-17.054-17.067-17.067H51.2
				c-9.421,0.012-17.054,7.646-17.067,17.067v25.6C34.146,197.154,41.779,204.788,51.2,204.8z M51.2,162.133h170.667l0.017,25.6
				H51.2V162.133z"/>
			<path d="M51.2,409.6h409.6c9.421-0.012,17.054-7.646,17.067-17.067V273.067c-0.012-9.421-7.646-17.054-17.067-17.067H51.2
				c-9.421,0.012-17.054,7.646-17.067,17.067v119.467C34.146,401.954,41.779,409.588,51.2,409.6z M51.2,273.067h409.6l0.017,119.467
				H51.2V273.067z"/>
			<path d="M290.133,204.8H460.8c9.421-0.012,17.054-7.646,17.067-17.067v-25.6c-0.012-9.421-7.646-17.054-17.067-17.067H290.133
				c-9.421,0.012-17.054,7.646-17.067,17.067v25.6C273.079,197.154,280.713,204.788,290.133,204.8z M290.133,162.133H460.8
				l0.017,25.6H290.133V162.133z"/>
			<path d="M42.667,128H102.4c4.713,0,8.533-3.82,8.533-8.533s-3.82-8.533-8.533-8.533H42.667c-4.713,0-8.533,3.82-8.533,8.533
				S37.954,128,42.667,128z"/>
			<path d="M42.667,238.933H102.4c4.713,0,8.533-3.82,8.533-8.533s-3.82-8.533-8.533-8.533H42.667c-4.713,0-8.533,3.82-8.533,8.533
				S37.954,238.933,42.667,238.933z"/>
			<path d="M281.6,128h59.733c4.713,0,8.533-3.82,8.533-8.533s-3.82-8.533-8.533-8.533H281.6c-4.713,0-8.533,3.82-8.533,8.533
				S276.887,128,281.6,128z"/>
			<path d="M452.267,426.667h-76.8c-14.138,0-25.6,11.462-25.6,25.6c0,14.138,11.461,25.6,25.6,25.6h76.8
				c14.138,0,25.6-11.462,25.6-25.6C477.867,438.128,466.405,426.667,452.267,426.667z M452.267,460.8h-76.8
				c-4.713,0-8.533-3.821-8.533-8.533c0-4.713,3.82-8.533,8.533-8.533h76.8c4.713,0,8.533,3.821,8.533,8.533
				C460.8,456.979,456.979,460.8,452.267,460.8z"/>
		</g>
	</g>
</g>
<g>
</g>
<g>
</g>
<g>
</g>
<g>
</g>
<g>
</g>
<g>
</g>
<g>
</g>
<g>
</g>
<g>
</g>
<g>
</g>
<g>
</g>
<g>
</g>
<g>
</g>
<g>
</g>
<g>
</g>
</svg>
