<?xml version="1.0" encoding="iso-8859-1"?>
<!-- Generator: Adobe Illustrator 19.0.0, SVG Export Plug-In . SVG Version: 6.00 Build 0)  -->
<svg version="1.1" id="Layer_1" xmlns="http://www.w3.org/2000/svg" xmlns:xlink="http://www.w3.org/1999/xlink" x="0px" y="0px"
	 viewBox="0 0 512 512" style="enable-background:new 0 0 512 512;" xml:space="preserve">
<g>
	<g>
		<path d="M413.335,326.798c19.561-11.932,32.649-33.473,32.649-58.015v-52c0-33.884-24.948-62.047-57.438-67.096V99.463
			c0-4.129-3.347-7.476-7.476-7.476h-80.093V61.978c0-26.69-21.714-48.404-48.404-48.404H135.974
			c-26.69,0-48.404,21.714-48.404,48.404v30.009H7.476C3.347,91.987,0,95.334,0,99.463v57.218v208.218
			c0,4.129,3.347,7.476,7.476,7.476h65.936c4.129,0,7.476-3.347,7.476-7.476c0-4.128-3.347-7.476-7.476-7.476h-58.46V206.454
			c12.974,19.692,33.447,34.137,57.612,39.038v8.205c0,13.191,10.732,23.922,23.923,23.922s23.923-10.732,23.923-23.922v-6.343
			h57.75c4.129,0,7.476-3.347,7.476-7.476c0-4.129-3.347-7.476-7.476-7.476h-57.75V214.1c0-4.129-3.347-7.476-7.476-7.476H80.039
			c-4.129,0-7.476,3.347-7.476,7.476v16.098c-33.379-8.185-57.612-38.41-57.612-73.517v-49.743h80.093h26.754h144.949H293.5h80.094
			v42.087c-0.445,0.029-0.882,0.082-1.325,0.12c-0.511,0.044-1.023,0.083-1.531,0.138c-0.619,0.067-1.233,0.151-1.847,0.235
			c-0.491,0.067-0.985,0.128-1.473,0.205c-0.624,0.099-1.242,0.217-1.86,0.333c-0.469,0.088-0.942,0.168-1.409,0.266
			c-0.637,0.134-1.265,0.287-1.895,0.439c-0.439,0.106-0.881,0.201-1.317,0.315c-0.669,0.174-1.328,0.372-1.988,0.566
			c-0.387,0.114-0.779,0.217-1.162,0.337c-0.744,0.233-1.477,0.491-2.21,0.75c-0.292,0.103-0.589,0.194-0.88,0.302
			c-2.047,0.754-4.049,1.602-5.998,2.541c-0.203,0.098-0.4,0.206-0.601,0.306c-0.765,0.378-1.525,0.76-2.273,1.165
			c-0.305,0.165-0.6,0.344-0.902,0.513c-0.634,0.357-1.269,0.713-1.891,1.088c-0.339,0.205-0.668,0.424-1.003,0.634
			c-0.572,0.36-1.144,0.718-1.705,1.094c-0.351,0.235-0.692,0.483-1.038,0.726c-0.53,0.371-1.062,0.74-1.582,1.125
			c-0.352,0.261-0.695,0.534-1.042,0.801c-0.498,0.385-0.998,0.77-1.485,1.167c-0.348,0.284-0.687,0.578-1.029,0.869
			c-0.47,0.401-0.941,0.801-1.401,1.214c-0.34,0.305-0.671,0.62-1.005,0.932c-0.446,0.417-0.889,0.833-1.323,1.261
			c-0.33,0.325-0.652,0.658-0.975,0.99c-0.421,0.433-0.839,0.866-1.248,1.309c-0.318,0.344-0.628,0.694-0.938,1.045
			c-0.397,0.448-0.79,0.898-1.175,1.357c-0.304,0.362-0.601,0.728-0.897,1.096c-0.374,0.464-0.743,0.93-1.103,1.403
			c-0.289,0.379-0.572,0.76-0.853,1.145c-0.35,0.478-0.694,0.961-1.031,1.448c-0.272,0.394-0.54,0.791-0.805,1.191
			c-0.326,0.493-0.645,0.991-0.958,1.492c-0.255,0.409-0.507,0.819-0.754,1.234c-0.302,0.507-0.595,1.02-0.884,1.535
			c-0.237,0.423-0.471,0.846-0.7,1.275c-0.277,0.521-0.545,1.049-0.809,1.578c-0.217,0.436-0.434,0.871-0.642,1.312
			c-0.253,0.535-0.494,1.076-0.734,1.62c-0.197,0.448-0.395,0.894-0.583,1.346c-0.227,0.549-0.443,1.104-0.656,1.661
			c-0.175,0.456-0.353,0.912-0.519,1.374c-0.203,0.566-0.392,1.138-0.58,1.71c-0.152,0.464-0.309,0.924-0.451,1.391
			c-0.177,0.582-0.338,1.17-0.5,1.759c-0.13,0.469-0.264,0.935-0.384,1.408c-0.152,0.6-0.284,1.207-0.42,1.813
			c-0.105,0.47-0.217,0.938-0.313,1.411c-0.127,0.628-0.23,1.262-0.34,1.896c-0.079,0.461-0.167,0.919-0.237,1.383
			c-0.101,0.669-0.176,1.345-0.257,2.019c-0.053,0.438-0.117,0.872-0.16,1.312c-0.075,0.748-0.122,1.502-0.172,2.256
			c-0.025,0.376-0.064,0.747-0.083,1.124c-0.057,1.133-0.087,2.274-0.087,3.421v14.611c-3.471,0.571-6.972,0.901-10.474,0.987V214.1
			c0-4.129-3.347-7.476-7.476-7.476h-32.894c-4.129,0-7.476,3.347-7.476,7.476v18.302h-48.78c-4.128,0-7.476,3.347-7.476,7.476
			c0,4.128,3.347,7.476,7.476,7.476h48.78v6.343c0,13.191,10.732,23.922,23.922,23.922c13.191,0,23.923-10.732,23.923-23.922v-6.371
			c3.499-0.071,6.996-0.347,10.474-0.824v22.281c0,1.134,0.03,2.266,0.086,3.392c0.022,0.439,0.065,0.872,0.095,1.309
			c0.047,0.681,0.089,1.362,0.156,2.038c0.054,0.542,0.13,1.076,0.196,1.615c0.07,0.561,0.132,1.124,0.214,1.684
			c0.09,0.6,0.2,1.193,0.305,1.787c0.086,0.486,0.164,0.975,0.261,1.458c0.129,0.644,0.277,1.281,0.424,1.918
			c0.098,0.424,0.188,0.849,0.294,1.272c0.171,0.685,0.363,1.362,0.554,2.037c0.104,0.363,0.2,0.728,0.31,1.088
			c0.221,0.733,0.462,1.456,0.708,2.178c0.099,0.291,0.193,0.584,0.296,0.874c0.282,0.793,0.583,1.577,0.893,2.356
			c0.082,0.205,0.159,0.412,0.243,0.616c0.356,0.87,0.733,1.728,1.123,2.58c0.047,0.102,0.092,0.204,0.139,0.306
			c5.687,12.242,14.904,22.523,26.353,29.507c-20.77,5.902-39.674,16.583-55.254,30.626H98.329c-4.129,0-7.476,3.347-7.476,7.476
			c0,4.129,3.347,7.476,7.476,7.476h174.949c-18.149,22.109-29.119,49.663-29.119,78.995v39.581c0,4.128,3.347,7.476,7.476,7.476
			h56.942c4.129,0,7.476-3.347,7.476-7.476c0-4.129-3.347-7.476-7.476-7.476H259.11V451.37c0-29.859,12.741-58.41,35.876-80.391
			c0.231-0.219,0.467-0.433,0.7-0.65c0.895-0.837,1.803-1.66,2.721-2.47c0.072-0.064,0.144-0.128,0.215-0.19
			c1.811-1.591,3.668-3.124,5.564-4.606c0.344-0.268,0.691-0.531,1.037-0.795c0.507-0.388,1.018-0.771,1.531-1.151
			c0.506-0.374,1.012-0.748,1.523-1.114c0.216-0.156,0.435-0.306,0.652-0.46c10.623-7.508,22.347-13.332,34.599-17.237
			l12.138,23.582l-16.216,70.393c-0.605,2.625,0.25,5.373,2.238,7.193l31.345,28.688c1.428,1.308,3.237,1.961,5.047,1.961
			s3.618-0.654,5.048-1.961l31.345-28.688c1.987-1.819,2.843-4.567,2.238-7.193l-16.216-70.393l12.138-23.582
			c17.903,5.706,34.685,15.507,48.541,28.673c23.134,21.98,35.876,50.531,35.876,80.39v32.105H333.495
			c-4.128,0-7.476,3.347-7.476,7.476c0,4.128,3.347,7.476,7.476,7.476h171.029c4.128,0,7.476-3.347,7.476-7.476v-39.581
			C512,393.612,469.47,342.748,413.335,326.798z M87.513,239.178v-17.603h0.001h17.942v18.302v13.819
			c0,4.947-4.025,8.971-8.972,8.971s-8.972-4.025-8.972-8.971V239.178z M259.271,91.987H129.274V67.337
			c0-6.817,5.546-12.364,12.364-12.364h105.27c6.817,0,12.364,5.546,12.364,12.364V91.987z M286.024,91.987h-11.802V67.337
			c0-15.061-12.253-27.315-27.315-27.315h-105.27c-15.061,0-27.315,12.253-27.315,27.315v24.651H102.52V61.978
			c0-18.446,15.007-33.453,33.453-33.453h116.598c18.446,0,33.453,15.007,33.453,33.453V91.987z M284.75,239.878v13.82
			c0,4.947-4.025,8.971-8.972,8.971c-4.947,0-8.971-4.025-8.971-8.971v-13.819v-18.303h17.942V239.878z M325.158,216.751
			c0-28.269,22.279-51.432,50.202-52.852c0.901-0.046,1.807-0.069,2.719-0.069c0.851,0,1.697,0.025,2.539,0.065
			c0.029,0.001,0.056,0.002,0.085,0.003c0.012,0.001,0.023-0.001,0.035,0c0.02,0.001,0.041,0,0.061,0.001
			C408.72,165.319,431,188.482,431,216.751v17.807c-24.115-4.474-33.873-28.993-34.307-30.115c-1.032-2.723-3.56-4.581-6.465-4.789
			c-2.907-0.202-5.675,1.307-7.086,3.854c-0.678,1.226-16.269,28.52-57.985,31.492V216.751z M401.161,435.389l-23.082,21.125
			l-23.082-21.125l14.517-63.013h17.13L401.161,435.389z M358.414,338.556c0.652-0.121,1.306-0.231,1.96-0.342
			c0.464-0.078,0.93-0.155,1.394-0.227c0.816-0.128,1.633-0.249,2.451-0.36c1.067-0.143,2.134-0.272,3.202-0.385
			c0.43-0.046,0.858-0.089,1.288-0.13c0.104-0.01,0.207-0.019,0.311-0.029c1.109-0.103,2.22-0.189,3.33-0.26
			c0.447-0.028,0.892-0.059,1.34-0.082c0.002,0,0.004,0,0.006,0c0.901-0.047,1.802-0.071,2.703-0.097
			c0.56,0.014,1.116,0.043,1.681,0.043c0.564,0,1.12-0.029,1.68-0.043c0.902,0.026,1.804,0.05,2.707,0.097
			c0.289,0.015,0.578,0.027,0.867,0.045c1.31,0.079,2.618,0.184,3.928,0.306c0.488,0.046,0.977,0.096,1.465,0.148
			c1.085,0.115,2.17,0.246,3.253,0.391c0.8,0.109,1.6,0.228,2.398,0.353c0.471,0.073,0.943,0.152,1.414,0.23
			c0.651,0.11,1.303,0.219,1.953,0.34l-9.709,18.869h-19.91L358.414,338.556z M381.175,321.639c-0.156-0.002-0.31-0.009-0.466-0.002
			c-0.187,0.009-0.374,0.021-0.561,0.034c-0.057,0.004-0.113,0.007-0.169,0.01c-0.599-0.016-1.196-0.039-1.797-0.047
			c-0.068,0-0.137,0-0.204,0c-0.601,0.008-1.199,0.031-1.798,0.047c-27.282-0.978-49.614-23.243-50.987-50.262
			c-0.043-0.873-0.067-1.752-0.067-2.636v-18.801c33.803-2.072,53.687-17.988,63.496-28.945
			c6.908,10.787,20.295,25.779,42.411,28.672v19.075C431.033,296.942,408.938,320.03,381.175,321.639z"/>
	</g>
</g>
<g>
</g>
<g>
</g>
<g>
</g>
<g>
</g>
<g>
</g>
<g>
</g>
<g>
</g>
<g>
</g>
<g>
</g>
<g>
</g>
<g>
</g>
<g>
</g>
<g>
</g>
<g>
</g>
<g>
</g>
</svg>
