<?xml version="1.0" encoding="iso-8859-1"?>
<!-- Generator: Adobe Illustrator 19.0.0, SVG Export Plug-In . SVG Version: 6.00 Build 0)  -->
<svg version="1.1" id="Capa_1" xmlns="http://www.w3.org/2000/svg" xmlns:xlink="http://www.w3.org/1999/xlink" x="0px" y="0px"
	 viewBox="0 0 512 512" style="enable-background:new 0 0 512 512;" xml:space="preserve">
<g>
	<g>
		<path d="M502,150h-64.914c-5.523,0-10,4.478-10,10c0,5.522,4.477,10,10,10H492v284c0,20.953-17.047,38-38,38s-38-17.047-38-38v-28
			h32c5.523,0,10-4.478,10-10c0-5.522-4.477-10-10-10h-32v-44h32c5.523,0,10-4.478,10-10c0-5.522-4.477-10-10-10h-32v-44h32
			c5.523,0,10-4.478,10-10c0-5.522-4.477-10-10-10h-32v-44h32c5.523,0,10-4.478,10-10c0-5.522-4.477-10-10-10h-32V10
			c0-5.522-4.477-10-10-10H256c-5.523,0-10,4.478-10,10s4.477,10,10,10h140v434c0,14.527,5.381,27.813,14.238,38H58
			c-20.953,0-38-17.047-38-38V20h129.336c5.523,0,10-4.478,10-10s-4.477-10-10-10H10C4.477,0,0,4.478,0,10v444
			c0,31.981,26.019,58,58,58h396c31.981,0,58-26.019,58-58V160C512,154.478,507.523,150,502,150z"/>
	</g>
</g>
<g>
	<g>
		<path d="M211.081,54H64c-5.523,0-10,4.478-10,10v128c0,5.522,4.477,10,10,10h147.081c5.523,0,10-4.478,10-10V64
			C221.081,58.478,216.604,54,211.081,54z M201.081,182H74V74h127.081V182z"/>
	</g>
</g>
<g>
	<g>
		<path d="M345.975,310.013H198.894c-5.523,0-10,4.478-10,10v128c0,5.522,4.477,10,10,10h147.081c5.523,0,10-4.478,10-10v-128
			C355.975,314.49,351.498,310.013,345.975,310.013z M335.975,438.013H208.894v-108h127.081V438.013z"/>
	</g>
</g>
<g>
	<g>
		<path d="M146.333,438H64c-5.523,0-10,4.478-10,10c0,5.522,4.477,10,10,10h82.333c5.523,0,10-4.478,10-10
			C156.333,442.478,151.856,438,146.333,438z"/>
	</g>
</g>
<g>
	<g>
		<path d="M146.333,374H64c-5.523,0-10,4.478-10,10c0,5.522,4.477,10,10,10h82.333c5.523,0,10-4.478,10-10
			C156.333,378.478,151.856,374,146.333,374z"/>
	</g>
</g>
<g>
	<g>
		<path d="M146.333,310H64c-5.523,0-10,4.478-10,10c0,5.522,4.477,10,10,10h82.333c5.523,0,10-4.478,10-10
			C156.333,314.478,151.856,310,146.333,310z"/>
	</g>
</g>
<g>
	<g>
		<path d="M305.533,246H64c-5.523,0-10,4.478-10,10c0,5.522,4.477,10,10,10h241.533c5.523,0,10-4.478,10-10
			C315.533,250.478,311.056,246,305.533,246z"/>
	</g>
</g>
<g>
	<g>
		<path d="M345.988,182h-80.91c-5.523,0-10,4.478-10,10c0,5.522,4.477,10,10,10h80.91c5.523,0,10-4.478,10-10
			C355.988,186.478,351.511,182,345.988,182z"/>
	</g>
</g>
<g>
	<g>
		<path d="M345.988,118h-80.91c-5.523,0-10,4.478-10,10c0,5.522,4.477,10,10,10h80.91c5.523,0,10-4.478,10-10
			C355.988,122.478,351.511,118,345.988,118z"/>
	</g>
</g>
<g>
	<g>
		<path d="M345.988,54h-80.91c-5.523,0-10,4.478-10,10s4.477,10,10,10h80.91c5.523,0,10-4.478,10-10
			C355.988,58.478,351.511,54,345.988,54z"/>
	</g>
</g>
<g>
	<g>
		<path d="M353.06,248.93c-1.86-1.86-4.44-2.93-7.07-2.93s-5.21,1.069-7.07,2.93c-1.86,1.861-2.93,4.44-2.93,7.07
			s1.07,5.21,2.93,7.069c1.86,1.86,4.44,2.931,7.07,2.931s5.21-1.07,7.07-2.931c1.86-1.859,2.93-4.439,2.93-7.069
			S354.92,250.79,353.06,248.93z"/>
	</g>
</g>
<g>
	<g>
		<path d="M213.07,2.93C211.21,1.07,208.63,0,206,0s-5.21,1.069-7.07,2.93C197.07,4.79,196,7.37,196,10s1.07,5.21,2.93,7.069
			C200.79,18.93,203.37,20,206,20s5.21-1.07,7.07-2.931C214.93,15.21,216,12.63,216,10S214.93,4.79,213.07,2.93z"/>
	</g>
</g>
<g>
</g>
<g>
</g>
<g>
</g>
<g>
</g>
<g>
</g>
<g>
</g>
<g>
</g>
<g>
</g>
<g>
</g>
<g>
</g>
<g>
</g>
<g>
</g>
<g>
</g>
<g>
</g>
<g>
</g>
</svg>
