<?xml version="1.0" encoding="iso-8859-1"?>
<!-- Generator: Adobe Illustrator 19.0.0, SVG Export Plug-In . SVG Version: 6.00 Build 0)  -->
<svg version="1.1" id="Capa_1" xmlns="http://www.w3.org/2000/svg" xmlns:xlink="http://www.w3.org/1999/xlink" x="0px" y="0px"
	 viewBox="0 0 512 512" style="enable-background:new 0 0 512 512;" xml:space="preserve">
<g>
	<g>
		<g>
			<path d="M509.656,74.344l-8-8c-1.5-1.5-3.534-2.344-5.656-2.344h-32V24c0-4.418-3.582-8-8-8H216c-4.418,0-8,3.582-8,8v40h-16v16
				h16v32h-16v16h24h240h24v-16h-16V80h28.688L496,83.312V352H16V83.312L19.312,80H32V64H16c-2.122,0-4.156,0.844-5.656,2.344l-8,8
				C0.844,75.844,0,77.878,0,80v280v128c0,4.418,3.582,8,8,8h496c4.418,0,8-3.582,8-8V360V80
				C512,77.878,511.156,75.844,509.656,74.344z M416,112H256V64h160V112z M432,112V56c0-4.418-3.582-8-8-8H248c-4.418,0-8,3.582-8,8
				v56h-16V32h224v80H432z M16,480v-80h168v-16H16v-16h480v16H328v16h168v80H16z"/>
			<path d="M248,200h32c4.418,0,8-3.582,8-8v-32c0-4.418-3.582-8-8-8h-32c-4.418,0-8,3.582-8,8v32C240,196.418,243.582,200,248,200z
				 M256,168h16v16h-16V168z"/>
			<path d="M392,200h32c4.418,0,8-3.582,8-8v-32c0-4.418-3.582-8-8-8h-32c-4.418,0-8,3.582-8,8v32C384,196.418,387.582,200,392,200z
				 M400,168h16v16h-16V168z"/>
			<path d="M320,200h32c4.418,0,8-3.582,8-8v-32c0-4.418-3.582-8-8-8h-32c-4.418,0-8,3.582-8,8v32C312,196.418,315.582,200,320,200z
				 M328,168h16v16h-16V168z"/>
			<path d="M312,256c0,4.418,3.582,8,8,8h32c4.418,0,8-3.582,8-8v-32c0-4.418-3.582-8-8-8h-32c-4.418,0-8,3.582-8,8V256z M328,232
				h16v16h-16V232z"/>
			<path d="M384,256c0,4.418,3.582,8,8,8h32c4.418,0,8-3.582,8-8v-32c0-4.418-3.582-8-8-8h-32c-4.418,0-8,3.582-8,8V256z M400,232
				h16v16h-16V232z"/>
			<path d="M240,256c0,4.418,3.582,8,8,8h32c4.418,0,8-3.582,8-8v-32c0-4.418-3.582-8-8-8h-32c-4.418,0-8,3.582-8,8V256z M256,232
				h16v16h-16V232z"/>
			<path d="M312,320c0,4.418,3.582,8,8,8h32c4.418,0,8-3.582,8-8v-32c0-4.418-3.582-8-8-8h-32c-4.418,0-8,3.582-8,8V320z M328,296
				h16v16h-16V296z"/>
			<path d="M384,320c0,4.418,3.582,8,8,8h32c4.418,0,8-3.582,8-8v-32c0-4.418-3.582-8-8-8h-32c-4.418,0-8,3.582-8,8V320z M400,296
				h16v16h-16V296z"/>
			<path d="M240,320c0,4.418,3.582,8,8,8h32c4.418,0,8-3.582,8-8v-32c0-4.418-3.582-8-8-8h-32c-4.418,0-8,3.582-8,8V320z M256,296
				h16v16h-16V296z"/>
			<path d="M200,440h16v16c0,4.418,3.582,8,8,8h64c4.418,0,8-3.582,8-8v-16h16v-16H200V440z M280,448h-48v-8h48V448z"/>
			<path d="M32,192c-0.005,0.221-0.005,0.442,0,0.663c0.183,8.653,7.347,15.52,16,15.337h128c0.221,0.005,0.442,0.005,0.663,0
				c8.653-0.183,15.52-7.347,15.337-16v-16c0-4.418-3.582-8-8-8h-8V40c0-1.907-0.681-3.751-1.921-5.201
				c-2.872-3.358-7.922-3.751-11.279-0.88l-13.52,11.56l-13.488-11.552c-2.994-2.561-7.406-2.561-10.4,0l-13.456,11.536
				L98.488,33.928c-2.994-2.561-7.406-2.561-10.4,0L74.64,45.464L61.208,33.928c-1.45-1.244-3.297-1.927-5.207-1.927
				C51.582,32,48,35.582,48,40v128h-8c-4.418,0-8,3.582-8,8V192z M64,57.416l5.44,4.656c2.994,2.561,7.406,2.561,10.4,0
				l13.456-11.536l13.464,11.536c2.994,2.561,7.406,2.561,10.4,0l13.456-11.544l13.488,11.552c2.994,2.561,7.406,2.561,10.4,0
				L160,57.376V168H64V57.416z M48,184h128v8H48V184z"/>
			<rect x="80" y="88" width="64" height="16"/>
			<rect x="80" y="120" width="32" height="16"/>
			<rect x="128" y="120" width="16" height="16"/>
			<path d="M48,232c-4.418,0-8,3.582-8,8v80c0,4.418,3.582,8,8,8h128c4.418,0,8-3.582,8-8v-80c0-4.418-3.582-8-8-8H48z M168,248v16
				H56v-16H168z M56,312v-32h112v32H56z"/>
			<rect x="208" y="384" width="96" height="16"/>
		</g>
	</g>
</g>
<g>
</g>
<g>
</g>
<g>
</g>
<g>
</g>
<g>
</g>
<g>
</g>
<g>
</g>
<g>
</g>
<g>
</g>
<g>
</g>
<g>
</g>
<g>
</g>
<g>
</g>
<g>
</g>
<g>
</g>
</svg>
