<?xml version="1.0" encoding="iso-8859-1"?>
<!-- Generator: Adobe Illustrator 19.0.0, SVG Export Plug-In . SVG Version: 6.00 Build 0)  -->
<svg version="1.1" id="Capa_1" xmlns="http://www.w3.org/2000/svg" xmlns:xlink="http://www.w3.org/1999/xlink" x="0px" y="0px"
	 viewBox="0 0 512 512" style="enable-background:new 0 0 512 512;" xml:space="preserve">
<g>
	<g>
		<path d="M367.496,129.494H295V75.997c0-0.012-0.002-0.024-0.002-0.036c-0.018-37.205-30.291-67.467-67.5-67.467
			c-14.964,0-28.8,4.901-40.004,13.173c-11.204-8.272-25.04-13.173-40.004-13.173c-37.22,0-67.501,30.281-67.501,67.501
			c0,0.003,0,0.006,0,0.01v53.493H47.55c-0.016,0-0.032-0.002-0.048-0.002c-0.017,0-0.032,0.002-0.048,0.002H7.5
			c-1.98,0-3.91,0.8-5.3,2.2c-1.4,1.39-2.2,3.32-2.2,5.3v130.98c0,4.14,3.36,7.5,7.5,7.5s7.5-3.36,7.5-7.5v-123.48h25.002v308.396
			L15,477.896V297.977c0-4.14-3.36-7.5-7.5-7.5s-7.5,3.36-7.5,7.5v198.03c0,0.027,0.004,0.055,0.004,0.082
			c0.003,0.218,0.012,0.435,0.033,0.651c0.001,0.013,0.004,0.026,0.005,0.039c0.171,1.653,0.888,3.261,2.154,4.527
			c0.122,0.122,0.251,0.23,0.378,0.342c0.06,0.052,0.115,0.109,0.176,0.159c0.136,0.112,0.279,0.212,0.421,0.313
			c0.058,0.041,0.112,0.086,0.17,0.125c0.184,0.124,0.375,0.235,0.567,0.34c0.02,0.011,0.039,0.024,0.059,0.035
			c0.202,0.108,0.408,0.204,0.617,0.292c0.016,0.006,0.03,0.015,0.046,0.021c0.184,0.076,0.372,0.141,0.561,0.202
			c0.046,0.015,0.091,0.034,0.138,0.048c0.135,0.041,0.272,0.07,0.409,0.103c0.107,0.026,0.211,0.057,0.318,0.078
			c0.046,0.009,0.093,0.013,0.139,0.021c0.429,0.077,0.864,0.122,1.303,0.122h80c0.023,0,0.045-0.003,0.068-0.003h139.925
			c4.142,0,7.5-3.358,7.5-7.5c0.002-4.143-3.356-7.501-7.498-7.501H95.004V144.494H160v41.502c0,4.14,3.36,7.5,7.5,7.5
			c4.13,0,7.5-3.36,7.5-7.5v-41.502h105v41.502c0,4.14,3.36,7.5,7.5,7.5c4.13,0,7.5-3.36,7.5-7.5v-41.502h64.996v51.508
			c0,4.142,3.358,7.5,7.5,7.5c4.142,0,7.5-3.358,7.5-7.5v-59.008C374.996,132.852,371.638,129.494,367.496,129.494z M25.602,488.506
			l21.9-21.9l21.899,21.9H25.602z M80,477.893l-24.998-25V144.497H80V477.893z M159.997,75.994c0,0.02,0.003,0.039,0.003,0.058
			v53.442H94.99V75.997c0-0.002,0-0.005,0-0.007c0.002-28.947,23.552-52.497,52.5-52.497c10.62,0,20.507,3.179,28.778,8.622
			C166.138,43.924,159.997,59.251,159.997,75.994z M199.99,75.997v53.498H175V75.997c0-0.013-0.002-0.026-0.002-0.039
			c0.009-12.921,4.718-24.757,12.496-33.909c7.782,9.156,12.492,21,12.497,33.928C199.991,75.984,199.99,75.99,199.99,75.997z
			 M280,129.494h-65.01V76.023c0-0.01,0.002-0.019,0.002-0.029c0-16.743-6.141-32.069-16.271-43.879
			c8.271-5.443,18.158-8.622,28.778-8.622c28.948,0,52.5,23.552,52.5,52.501c0,0.006,0.001,0.013,0.001,0.02V129.494z"/>
	</g>
</g>
<g>
	<g>
		<path d="M504.5,278.504h-42.633c6.314-7.418,10.136-17.02,10.136-27.502c0-23.435-19.065-42.5-42.5-42.5
			c-27.332,0-43.05,17.382-49.579,30.319c-1.781-0.204-3.589-0.319-5.424-0.319c-1.834,0-3.641,0.115-5.422,0.319
			c-6.529-12.937-22.248-30.319-49.58-30.319c-23.435,0-42.5,19.065-42.5,42.5c0,10.482,3.822,20.084,10.136,27.502h-42.632
			c-4.142,0-7.5,3.358-7.5,7.5v60c0,4.142,3.358,7.5,7.5,7.5h12.5v142.499c0,4.142,3.358,7.5,7.5,7.5H484.5
			c4.142,0,7.5-3.358,7.5-7.5V353.504h12.5c4.142,0,7.5-3.358,7.5-7.5v-60C512,281.862,508.642,278.504,504.5,278.504z
			 M374.5,253.502c15.341,0,28.224,10.686,31.621,25.002h-63.242C346.276,264.188,359.159,253.502,374.5,253.502z M327,488.503
			h-54.998V353.504H327V488.503z M327,338.504h-74.998v-45H327V338.504z M327.593,278.504h-8.057c-0.013,0-0.025-0.002-0.038-0.002
			c-15.163,0-27.5-12.337-27.5-27.5c0-15.164,12.337-27.5,27.5-27.5c19.853,0,30.137,11.811,34.743,19.547
			C340.32,249.641,330.096,262.8,327.593,278.504z M407.002,488.503H342V353.504h65.002V488.503z M407.002,338.504H342v-45h65.002
			V338.504z M394.782,243.06c4.621-7.714,14.933-19.558,34.721-19.558c15.164,0,27.5,12.336,27.5,27.5
			c0,15.163-12.336,27.5-27.5,27.5c-0.013,0-0.025,0.002-0.039,0.002h-8.058C418.905,262.809,408.691,249.656,394.782,243.06z
			 M477,488.503h-54.998V353.504H477V488.503z M497,338.504h-74.998v-45H497V338.504z"/>
	</g>
</g>
<g>
</g>
<g>
</g>
<g>
</g>
<g>
</g>
<g>
</g>
<g>
</g>
<g>
</g>
<g>
</g>
<g>
</g>
<g>
</g>
<g>
</g>
<g>
</g>
<g>
</g>
<g>
</g>
<g>
</g>
</svg>
